<?xml version="1.0" standalone="no"?><!DOCTYPE svg PUBLIC "-//W3C//DTD SVG 1.1//EN" "http://www.w3.org/Graphics/SVG/1.1/DTD/svg11.dtd" [<!ENTITY nbsp " ">]><svg data-noselect="" viewBox="-29.135127044985012 -3.0996308001582236 717.988295797875 538.4912218484063" width="717.988295797875" ref="svg_canvas" height="538.4912218484063" preserveAspectRatio="none" version="1.1" xmlns="http://www.w3.org/2000/svg" style="background: rgba(255, 255, 255, 0);">
    <def></def>
    <g id="shape_JZfIU9uh3q" ref="shape_JZfIU9uh3q" key="shape_JZfIU9uh3q" transform="translate(50.86487295501499,184.15589264146269) rotate(0,92.867812399435,92.867812399435) scale(1,1)" style="cursor:move;display:inline;opacity:1;" filter="">
            <g style="display:inline"><rect fill="rgba(0,0,0,0)" width="205.73562479887" height="183.98017496516454" x="-10" y="-10"></rect><svg version="1.1" id="图层_1" xmlns="http://www.w3.org/2000/svg" xmlns:xlink="http://www.w3.org/1999/xlink" x="0px" y="0px" width="185.73562479887" height="163.98017496516454" viewBox="-0.0069122314453125 0.002056121826171875 178.89820861816406 157.94363403320312" style="enable-background:new 0 0 178.9 158.1;" xml:space="preserve" class="style-removed" preserveAspectRatio="none" data-parent="shape_JZfIU9uh3q">

<g>
	<g>
		<path d="M26.8,54.5c3.3-1.2,2-5.5-7.6-10.8c-9.6-5.3-20.4-0.4-19.1,6.9C1.5,57.9,18.4,57.4,26.8,54.5z" fill="#4FB0F8"></path>
		<path d="M12.9,72.2c3.4,2.4,10.1-4.4,12.4-8.9c0.9-1.8-1.4-3-7.3-1.4C12,63.5,9.5,69.7,12.9,72.2z" fill="#4FB0F8"></path>
	</g>
	<g>
		<path d="M177.6,64.8c-0.1-0.4-0.1-0.7-0.1-1.1C177.6,64.1,177.6,64.4,177.6,64.8z" fill="none"></path>
		<path d="M178.2,70.2c-0.1-1.8-0.3-3.6-0.6-5.4c0-0.4-0.1-0.7-0.1-1.1C167.2-3.4,78.4-10.5,36.1,35.6
			c-1.7,2.2,0.7,5.3,3.2,4.1c0.5-0.2,1-0.5,1.6-0.7c10-4.4,20.4-8.2,31.2-11.1c2.7-0.7,5.4-1.5,8.2-2c2.7-0.7,5.6-1.1,8.5-1.5
			c2.8-0.5,5.9-0.6,8.8-0.9l4.6,0l2.3,0l2.4,0.2c1.6,0.2,3,0.3,4.9,0.6c2,0.4,4,1,5.9,1.9c3.8,1.7,7.1,4.4,9.7,7.6
			c1.3,1.6,2.4,3.4,3.3,5.3c0.7,1.6,1.2,2.7,1.8,4.1c1,2.7,2,5.3,3,8c3.6,10.7,6.6,21.8,7.1,33.8c0.5,11.9-1.1,25.3-10,37.4
			c-5.1,6.4-11.6,10.3-18.5,12.6c-6.9,2.3-14.5,2.8-22,1.1c-7.5-1.7-14.7-5.9-19.7-11.6c-4.9-5.5-7.9-11.8-10-18
			c-2.2-6.3,0.7-13.5,6.8-16.1c6.9-3,14.7,0.6,17,7.6c0,0.1,0.1,0.2,0.1,0.2l0.2,0.7c1.1,3.7,2.6,6.9,4.4,9.2
			c1.9,2.3,4.2,3.7,6.9,4.6c2.8,0.8,6.1,0.8,9.3-0.2c3.2-0.9,6.1-2.7,7.6-4.5c0.4-0.3,0.9-1.2,1.4-1.9l0.7-1.1l0.6-1.3
			c0.9-1.6,1.4-3.5,2-5.4c1-3.9,1.4-8.3,1.5-12.9c0-9.1-1.5-18.9-4.2-28.3c-0.7-2.4-1.4-4.7-2.3-6.9l-1.3-3.2
			c-0.2-0.5-0.5-1-0.8-1.5c-0.7-0.9-1.6-1.7-2.6-2.1c-0.5-0.2-1-0.4-1.6-0.5c-0.7-0.1-2-0.2-3-0.3l-1.6-0.2l-1.7,0l-3.4,0
			c-2.3,0.3-4.6,0.3-7,0.7c-2.4,0.4-4.7,0.7-7.1,1.3c-2.4,0.5-4.8,1.1-7.1,1.8c-9.5,2.7-19,6.5-28.2,10.7c-1.8,0.8-3.5,1.7-5.3,2.6
			c-14.4,7.2-22.6,23-19.7,38.8c7.3,40.4,40.9,56.8,76.8,59.3c57.8,4,79.7-27,78-78C178.7,76.6,178.5,73.4,178.2,70.2z" fill="#4FB0F8"></path>
		<path d="M177.5,63.7c-5.1-37.6-25.4-71.8-76.7-62c-26.3,5-50.4,15.2-64.7,33.9C78.4-10.5,167.2-3.4,177.5,63.7z" fill="#7063E4"></path>
	</g>
</g>
</svg></g>
        </g><g id="shape_RwMyvYnIc6" ref="shape_RwMyvYnIc6" key="shape_RwMyvYnIc6" transform="translate(155.93315349395,-92.52957987596002) rotate(0,360.65837299071,339.67556) scale(1,1)" style="cursor:move;display:inline;opacity:1;" filter="">
            <g style="display:inline"><svg xmlns="http://www.w3.org/2000/svg" version="1.1" xmlns:xlink="http://www.w3.org/1999/xlink" width="678.6800000000001" height="679.35112" viewBox="0 0 678.6800000000001 679.35112" preserveAspectRatio="none" data-parent="shape_RwMyvYnIc6"><rect fill="rgba(0,0,0,0)" width="307" height="92" x="92.92" y="293.67556"></rect><g data-width="306.636" transform="translate(92.92, 0)"><path d="M5.02-62.16L5.02-62.16Q6.13-61.88 9.11-61.88L9.11-61.88Q15.24-61.88 23.74-62.86Q32.24-63.84 34.47-65.04L34.47-65.04Q36.33-64.49 38.19-62.07Q40.05-59.65 40.98-57.52L40.98-57.52Q39.21-56.40 32.24-55.94L32.24-55.94Q31.78-55.94 30.38-55.80Q28.99-55.66 29.18-55.47L29.18-55.47Q29.36-55.10 29.36-51.01L29.36-51.01Q29.36-42.84 28.76-26.25Q28.15-9.66 27.88-8.08L27.88-8.08Q25.65 3.44 19.70 9.01Q13.75 14.59 1.95 14.59L1.95 14.59Q2.60 13.94 3.72 13.10L3.72 13.10Q6.97 10.69 9.71 7.67Q12.45 4.65 14.87-1.21Q17.28-7.06 17.93-15.89L17.93-15.89Q18.12-19.05 18.35-25.69Q18.58-32.34 18.58-39.12L18.58-39.12Q18.58-51.57 17.65-55.47L17.65-55.47Q16.91-55.47 15.66-55.38Q14.40-55.29 12.92-55.29L12.92-55.29Q10.87-55.29 9.85-55.66L9.85-55.66Q7.99-56.40 6.69-58.40Q5.39-60.40 5.02-62.16L5.02-62.16ZM27.60-48.60L27.60-48.60Q27.50-49.53 27.32-49.71L27.32-49.71Q27.41-48.97 27.60-48.60L27.60-48.60ZM24.44-40.42L24.44-40.42Q24.44-40.70 24.53-40.79L24.53-40.79Q24.25-41.07 23.88-41.58Q23.51-42.09 23.32-42.28L23.32-42.28L22.58-42.28L22.30-41.91Q22.21-41.91 22.25-41.81Q22.30-41.72 22.30-41.54L22.30-41.54Q22.49-41.07 22.81-40.65Q23.14-40.23 23.32-39.86L23.32-39.86Q23.79-39.96 24.02-40.05Q24.25-40.14 24.44-40.42L24.44-40.42ZM27.04-36.42L27.04-36.42Q27.13-36.52 27.13-36.61Q27.13-36.70 27.04-36.98L27.04-36.98Q26.30-36.70 26.02-36.42Q25.74-36.15 25.46-35.40L25.46-35.40Q25.65-35.59 26.25-35.87Q26.85-36.15 27.04-36.42L27.04-36.42ZM16.08 3.72L16.08 3.72Q16.63 3.44 17.05 2.56Q17.47 1.67 17.47 0.74L17.47 0.74Q17.47 0 17.10-0.46L17.10-0.46Q17.00 0.74 16.54 2.09Q16.08 3.44 15.80 4.27L15.80 4.27L16.08 4.27L16.08 3.72Z" transform="translate(0 375.67556) " fill="rgb(49, 49, 49)" stroke="rgb(49, 49, 49)" stroke-width="0.155" data-glyph-w="41.814" data-glyph-h="121.63228000000001" data-glyph-ascender="96.91556" data-glyph-descender="-24.716720000000002"></path><path d="M10.78-12.73L10.78-12.73Q9.94-16.35 9.66-22.35Q9.38-28.34 9.38-36.80L9.38-36.80L9.48-52.96Q9.48-57.33 9.29-63.09L9.29-63.09Q11.62-63.56 15.94-64.30Q20.26-65.04 21.00-65.04L21.00-65.04Q21.00-60.40 20.81-51.29L20.81-51.29Q20.63-42.37 20.63-38.38L20.63-38.38Q20.63-24.62 22.81-17.33Q25.00-10.04 31.31-10.04L31.31-10.04Q37.63-10.04 39.72-20.44Q41.81-30.85 41.81-46.46L41.81-46.46L41.72-57.24Q41.72-60.03 41.91-62.26L41.91-62.26Q42.93-62.91 47.81-64.21Q52.69-65.51 53.71-65.23L53.71-65.23L53.24-51.76Q52.41-23.32 51.85-21.56L51.85-21.56Q49.99-12.54 46.32-8.04Q42.65-3.53 38.98-2.37Q35.31-1.21 31.31-1.21L31.31-1.21Q27.04-1.21 24.21-1.63Q21.37-2.04 17.70-4.55Q14.03-7.06 10.78-12.73L10.78-12.73ZM46.00-20.16L46.00-20.16Q46.00-20.44 46.09-20.54L46.09-20.54Q45.62-20.81 44.97-21.93L44.97-21.93L44.23-21.93L44.04-21.56Q43.95-21.56 44.00-21.46Q44.04-21.37 44.04-21.19L44.04-21.19Q44.14-20.72 44.46-20.40Q44.79-20.07 44.97-19.70L44.97-19.70Q45.44-19.70 45.62-19.79Q45.81-19.88 46.00-20.16L46.00-20.16ZM48.41-16.45L48.41-16.45Q48.50-16.54 48.50-16.63Q48.50-16.73 48.41-17.00L48.41-17.00Q47.76-16.73 47.48-16.49Q47.20-16.26 46.92-15.52L46.92-15.52Q47.20-15.80 47.76-16.03Q48.32-16.26 48.41-16.45L48.41-16.45Z" transform="translate(41.814 375.67556) " fill="rgb(49, 49, 49)" stroke="rgb(49, 49, 49)" stroke-width="0.155" data-glyph-w="60.398" data-glyph-h="121.63228000000001" data-glyph-ascender="96.91556" data-glyph-descender="-24.716720000000002"></path><path d="M44.42-62.35L44.42-62.35Q44.69-62.35 46.65-63.09L46.65-63.09Q50.18-64.39 52.22-65.00Q54.27-65.60 55.94-65.60L55.94-65.60L55.47-53.89Q53.52-9.01 53.52-0.74L53.52-0.74Q45.90-1.39 42.93-2.88L42.93-2.88Q41.63-4.09 38.00-10.31Q34.38-16.54 28.34-27.41L28.34-27.41Q19.51-43.21 18.12-44.97L18.12-44.97Q17.75-36.80 17.75-22.77L17.75-22.77L17.75-13.57Q17.75-7.15 17.61-3.95Q17.47-0.74 16.91 0L16.91 0Q16.08-0.37 13.38-1.21L13.38-1.21Q12.92-1.39 10.92-2.04Q8.92-2.69 7.76-3.30Q6.60-3.90 6.41-4.46L6.41-4.46Q6.41-9.38 6.50-14.54Q6.60-19.70 6.69-24.35L6.69-24.35Q7.06-42.19 7.06-50.36L7.06-50.36Q7.06-62.07 6.41-63.65L6.41-63.65Q5.48-63.84 8.73-63.56Q11.99-63.28 14.91-62.30Q17.84-61.33 19.14-59.38L19.14-59.38Q21.19-55.94 24.90-50.27L24.90-50.27Q26.30-47.95 31.73-39.31Q37.17-30.66 40.42-25.18Q43.67-19.70 43.67-18.86L43.67-18.86Q43.67-21.93 43.95-30.11L43.95-30.11Q44.04-34.66 44.28-44.09Q44.51-53.52 44.51-57.98L44.51-57.98Q44.51-61.79 44.42-62.35L44.42-62.35ZM52.96-58.45L52.96-58.45Q52.59-58.54 52.08-58.82Q51.57-59.10 51.01-59.38L51.01-59.38Q50.73-59.47 49.90-59.93Q49.06-60.40 48.83-60.44Q48.60-60.49 48.88-60.03L48.88-60.03Q49.90-58.63 50.69-58.08Q51.48-57.52 52.96-57.05L52.96-57.05L52.96-58.45ZM11.80-13.29L11.80-13.29Q11.80-10.59 11.94-8.78Q12.08-6.97 12.64-5.76L12.64-5.76Q12.64-8.64 12.50-10.45Q12.36-12.27 11.80-13.29L11.80-13.29Z" transform="translate(102.212 375.67556) " fill="rgb(49, 49, 49)" stroke="rgb(49, 49, 49)" stroke-width="0.155" data-glyph-w="60.398" data-glyph-h="121.63228000000001" data-glyph-ascender="96.91556" data-glyph-descender="-24.716720000000002"></path><path d="M5.02-62.16L5.02-62.16Q6.13-61.88 9.11-61.88L9.11-61.88Q15.24-61.88 23.74-62.86Q32.24-63.84 34.47-65.04L34.47-65.04Q36.33-64.49 38.19-62.07Q40.05-59.65 40.98-57.52L40.98-57.52Q39.21-56.40 32.24-55.94L32.24-55.94Q31.78-55.94 30.38-55.80Q28.99-55.66 29.18-55.47L29.18-55.47Q29.36-55.10 29.36-51.01L29.36-51.01Q29.36-42.84 28.76-26.25Q28.15-9.66 27.88-8.08L27.88-8.08Q25.65 3.44 19.70 9.01Q13.75 14.59 1.95 14.59L1.95 14.59Q2.60 13.94 3.72 13.10L3.72 13.10Q6.97 10.69 9.71 7.67Q12.45 4.65 14.87-1.21Q17.28-7.06 17.93-15.89L17.93-15.89Q18.12-19.05 18.35-25.69Q18.58-32.34 18.58-39.12L18.58-39.12Q18.58-51.57 17.65-55.47L17.65-55.47Q16.91-55.47 15.66-55.38Q14.40-55.29 12.92-55.29L12.92-55.29Q10.87-55.29 9.85-55.66L9.85-55.66Q7.99-56.40 6.69-58.40Q5.39-60.40 5.02-62.16L5.02-62.16ZM27.60-48.60L27.60-48.60Q27.50-49.53 27.32-49.71L27.32-49.71Q27.41-48.97 27.60-48.60L27.60-48.60ZM24.44-40.42L24.44-40.42Q24.44-40.70 24.53-40.79L24.53-40.79Q24.25-41.07 23.88-41.58Q23.51-42.09 23.32-42.28L23.32-42.28L22.58-42.28L22.30-41.91Q22.21-41.91 22.25-41.81Q22.30-41.72 22.30-41.54L22.30-41.54Q22.49-41.07 22.81-40.65Q23.14-40.23 23.32-39.86L23.32-39.86Q23.79-39.96 24.02-40.05Q24.25-40.14 24.44-40.42L24.44-40.42ZM27.04-36.42L27.04-36.42Q27.13-36.52 27.13-36.61Q27.13-36.70 27.04-36.98L27.04-36.98Q26.30-36.70 26.02-36.42Q25.74-36.15 25.46-35.40L25.46-35.40Q25.65-35.59 26.25-35.87Q26.85-36.15 27.04-36.42L27.04-36.42ZM16.08 3.72L16.08 3.72Q16.63 3.44 17.05 2.56Q17.47 1.67 17.47 0.74L17.47 0.74Q17.47 0 17.10-0.46L17.10-0.46Q17.00 0.74 16.54 2.09Q16.08 3.44 15.80 4.27L15.80 4.27L16.08 4.27L16.08 3.72Z" transform="translate(162.61 375.67556) " fill="rgb(49, 49, 49)" stroke="rgb(49, 49, 49)" stroke-width="0.155" data-glyph-w="41.814" data-glyph-h="121.63228000000001" data-glyph-ascender="96.91556" data-glyph-descender="-24.716720000000002"></path><path d="M33.36-9.94L33.36-9.94Q34.29-8.92 34.94-7.11Q35.59-5.30 35.87-3.58Q36.15-1.86 36.05-1.58L36.05-1.58Q30.01-1.95 23.42-1.95L23.42-1.95Q14.87-1.95 8.18-1.39L8.18-1.39Q7.25-1.39 6.13-3.07Q5.02-4.74 4.37-6.60Q3.72-8.46 4.18-8.55L4.18-8.55L8.36-8.83Q15.80-9.01 15.80-9.57L15.80-9.57L16.08-16.73Q17.00-37.45 17.00-47.02L17.00-47.02Q17.00-54.27 16.45-55.19L16.45-55.19Q16.45-55.29 14.59-55.10L14.59-55.10Q12.36-54.92 10.87-54.92L10.87-54.92Q9.01-54.92 8.46-55.19L8.46-55.19Q7.43-56.22 6.32-58.45Q5.20-60.68 4.83-62.26L4.83-62.26Q6.32-62.16 9.48-62.16L9.48-62.16Q16.35-62.16 23.65-62.81Q30.94-63.46 34.38-64.30L34.38-64.30Q35.31-63.65 36.19-61.37Q37.08-59.10 37.63-56.59L37.63-56.59Q36.98-56.50 35.17-56.36Q33.36-56.22 32.24-56.12L32.24-56.12Q27.04-55.94 25.55-55.66L25.55-55.66Q25.83-55.10 25.83-48.13L25.83-48.13Q25.83-48.04 25.55-24.90L25.55-24.90L25.37-10.59Q25.83-10.50 28.71-10.31L28.71-10.31Q32.52-10.13 33.36-9.94L33.36-9.94ZM20.54-23.69L20.54-23.69Q20.26-24.07 20.12-24.62Q19.98-25.18 19.88-25.46L19.88-25.46L19.23-25.74Q19.14-25.65 19.00-25.60Q18.86-25.55 18.77-25.46L18.77-25.46Q18.68-25.46 18.72-25.37Q18.77-25.27 18.68-25.09L18.68-25.09Q18.68-24.62 18.82-24.16Q18.96-23.69 19.05-23.23L19.05-23.23Q19.51-23.14 19.75-23.14Q19.98-23.14 20.26-23.32L20.26-23.32L20.54-23.69ZM21.65-18.68L21.65-18.68Q21.84-18.77 21.84-18.91Q21.84-19.05 21.84-19.23L21.84-19.23Q20.91-19.14 20.44-19.00Q19.98-18.86 19.51-18.31L19.51-18.31Q19.79-18.40 20.63-18.44Q21.46-18.49 21.65-18.68L21.65-18.68ZM17.75-54.36L18.31-54.36L18.31-54.73L17.75-54.36Z" transform="translate(204.424 375.67556) " fill="rgb(49, 49, 49)" stroke="rgb(49, 49, 49)" stroke-width="0.155" data-glyph-w="41.814" data-glyph-h="121.63228000000001" data-glyph-ascender="96.91556" data-glyph-descender="-24.716720000000002"></path><path d="M18.31-37.91L18.31-37.91Q20.54-37.91 46.46-39.31L46.46-39.31L50.92-39.49Q52.04-38.10 53.15-35.45Q54.27-32.80 54.73-29.08L54.73-29.08Q53.15-29.18 47.53-29.32Q41.91-29.46 35.59-29.46L35.59-29.46Q24.35-29.46 18.21-28.90L18.21-28.90Q18.12-26.30 18.12-22.21L18.12-22.21Q18.12-17.84 17.93-14.31L17.93-14.31Q18.31-14.31 24.25-14.68L24.25-14.68Q25.92-14.77 33.40-15.24Q40.88-15.70 46.00-15.70L46.00-15.70Q51.11-15.70 52.22-15.15L52.22-15.15Q52.78-14.50 53.71-11.52Q54.64-8.55 54.64-6.97L54.64-6.97Q54.64-5.85 54.08-5.85L54.08-5.85Q45.16-6.97 32.15-6.97L32.15-6.97Q24.62-6.97 18.12-6.69L18.12-6.69L17.93-3.90Q17.47-3.72 15.42-2.97Q13.38-2.23 11.38-1.72Q9.38-1.21 7.81-1.21L7.81-1.21Q8.36-6.04 8.69-14.45Q9.01-22.86 9.01-32.06L9.01-32.06Q9.01-46.83 8.18-57.80L8.18-57.80Q7.99-59.93 7.06-62.07L7.06-62.07Q6.32-63.93 6.32-65.04L6.32-65.04Q6.32-66.16 18.31-61.33L18.31-61.33Q27.69-62.26 36.47-62.81Q45.25-63.37 49.71-63.37L49.71-63.37Q52.69-63.37 53.15-63.09L53.15-63.09Q54.17-62.44 55.06-59.93Q55.94-57.42 56.59-54.27L56.59-54.27Q50.55-54.82 39.58-54.82L39.58-54.82Q30.29-54.82 24.02-54.31Q17.75-53.80 18.31-52.78L18.31-52.78Q18.12-47.95 18.12-46.65L18.12-46.65L18.31-37.91ZM13.19-58.45L13.19-58.45Q14.12-57.70 15.98-57.70L15.98-57.70Q17.84-57.70 18.86-57.61L18.86-57.61L18.86-58.26Q18.40-58.45 17.47-58.45L17.47-58.45Q16.73-58.45 15.94-58.35Q15.15-58.26 14.50-58.26L14.50-58.26Q13.94-58.26 13.19-58.45L13.19-58.45ZM43.11-13.38L43.11-13.38Q42.93-13.19 42.46-13.06Q42.00-12.92 41.72-12.82L41.72-12.82L42.93-12.73Q44.14-12.73 44.51-13.38L44.51-13.38L43.11-13.38ZM26.11-11.89L26.11-11.89Q26.02-11.89 25.65-11.71Q25.27-11.52 25.09-11.34L25.09-11.34L29.55-11.34L29.92-11.71L29.92-11.89L26.11-11.89Z" transform="translate(246.238 375.67556) " fill="rgb(49, 49, 49)" stroke="rgb(49, 49, 49)" stroke-width="0.155" data-glyph-w="60.398" data-glyph-h="121.63228000000001" data-glyph-ascender="96.91556" data-glyph-descender="-24.716720000000002"></path></g></svg></g>
        </g><g id="shape_I14yRV7qIA" ref="shape_I14yRV7qIA" key="shape_I14yRV7qIA" transform="translate(225.10316875289,218.13084340529002) rotate(0,260.10884113021,109.01513671875) scale(1,1)" style="cursor:move;display:inline;opacity:1;" filter="">
            <g style="display:inline"><svg xmlns="http://www.w3.org/2000/svg" version="1.1" xmlns:xlink="http://www.w3.org/1999/xlink" width="476" height="218.0302734375" viewBox="0 0 476 218.0302734375" preserveAspectRatio="none" data-parent="shape_I14yRV7qIA"><rect fill="rgba(0,0,0,0)" width="353" height="30" x="30.75" y="94.01513671875"></rect><g data-width="352.7572734375" transform="translate(30.75, 0)"><path d="M3.80-22.69L3.80-15.41L15.28-15.41L15.28-13.11L3.80-13.11L3.80-3.54L1.50-3.54L1.50-24.98L15.28-24.98L15.28-22.69L3.80-22.69Z" transform="translate(0 118.01513671875) " fill="rgb(49, 49, 49)" stroke="rgb(49, 49, 49)" stroke-width="0.051" data-glyph-w="16.185791015625" data-glyph-h="32.041259765625" data-glyph-ascender="25.76513671875" data-glyph-descender="-6.276123046875"></path><path d="M10.66-11.97L3.80-11.97L3.80-3.54L1.50-3.54L1.50-24.98L11.85-24.98Q14.53-24.98 16.44-23.08L16.44-23.08Q18.35-21.17 18.35-18.47L18.35-18.47Q18.35-15.78 16.44-13.87L16.44-13.87Q15.12-12.55 13.41-12.15L13.41-12.15L19.88-3.54L17.01-3.54L10.66-11.97ZM11.85-22.69L3.80-22.69L3.80-14.26L11.85-14.26Q13.59-14.26 14.82-15.50L14.82-15.50Q16.05-16.73 16.05-18.47L16.05-18.47Q16.05-20.22 14.82-21.46L14.82-21.46Q13.59-22.69 11.85-22.69L11.85-22.69Z" transform="translate(16.185791015625 118.01513671875) " fill="rgb(49, 49, 49)" stroke="rgb(49, 49, 49)" stroke-width="0.051" data-glyph-w="19.248779296875" data-glyph-h="32.041259765625" data-glyph-ascender="25.76513671875" data-glyph-descender="-6.276123046875"></path><path d="M12.01-25.37Q16.61-25.37 19.86-22.12L19.86-22.12Q23.11-18.86 23.11-14.26L23.11-14.26Q23.11-9.65 19.86-6.41L19.86-6.41Q16.61-3.15 12.01-3.15L12.01-3.15Q7.40-3.15 4.16-6.41L4.16-6.41Q0.90-9.65 0.90-14.26L0.90-14.26Q0.90-18.86 4.16-22.12L4.16-22.12Q7.40-25.37 12.01-25.37L12.01-25.37ZM12.01-23.06L12.01-23.06Q8.36-23.06 5.78-20.49L5.78-20.49Q3.20-17.91 3.20-14.26L3.20-14.26Q3.20-10.62 5.78-8.03L5.78-8.03Q8.36-5.45 12.01-5.45L12.01-5.45Q15.66-5.45 18.24-8.03L18.24-8.03Q20.81-10.62 20.81-14.26L20.81-14.26Q20.81-17.91 18.24-20.49L18.24-20.49Q15.66-23.06 12.01-23.06Z" transform="translate(35.4345703125 118.01513671875) " fill="rgb(49, 49, 49)" stroke="rgb(49, 49, 49)" stroke-width="0.051" data-glyph-w="24.0084228515625" data-glyph-h="32.041259765625" data-glyph-ascender="25.76513671875" data-glyph-descender="-6.276123046875"></path><path d="M16.05-7.64L16.05-24.98L18.35-24.98L18.35-3.54L16.16-3.54L3.80-20.89L3.80-3.54L1.50-3.54L1.50-24.98L3.69-24.98L16.05-7.64Z" transform="translate(59.4429931640625 118.01513671875) " fill="rgb(49, 49, 49)" stroke="rgb(49, 49, 49)" stroke-width="0.051" data-glyph-w="19.849365234375" data-glyph-h="32.041259765625" data-glyph-ascender="25.76513671875" data-glyph-descender="-6.276123046875"></path><path d="M7.79-3.54L7.79-22.69L0.90-22.69L0.90-24.98L16.98-24.98L16.98-22.69L10.09-22.69L10.09-3.54L7.79-3.54Z" transform="translate(79.2923583984375 118.01513671875) " fill="rgb(49, 49, 49)" stroke="rgb(49, 49, 49)" stroke-width="0.051" data-glyph-w="17.8824462890625" data-glyph-h="32.041259765625" data-glyph-ascender="25.76513671875" data-glyph-descender="-6.276123046875"></path><path d="" transform="translate(97.1748046875 118.01513671875) " fill="rgb(49, 49, 49)" stroke="rgb(49, 49, 49)" stroke-width="0.051" data-glyph-w="12.2385" data-glyph-h="30.75" data-glyph-ascender="27.06" data-glyph-descender="-3.69"></path><path d="M3.80-22.69L3.80-15.41L16.82-15.41L16.82-13.11L3.80-13.11L3.80-5.84L16.82-5.84L16.82-3.54L1.50-3.54L1.50-24.98L16.82-24.98L16.82-22.69L3.80-22.69Z" transform="translate(109.4133046875 118.01513671875) " fill="rgb(49, 49, 49)" stroke="rgb(49, 49, 49)" stroke-width="0.051" data-glyph-w="17.71728515625" data-glyph-h="32.041259765625" data-glyph-ascender="25.76513671875" data-glyph-descender="-6.276123046875"></path><path d="M16.05-7.64L16.05-24.98L18.35-24.98L18.35-3.54L16.16-3.54L3.80-20.89L3.80-3.54L1.50-3.54L1.50-24.98L3.69-24.98L16.05-7.64Z" transform="translate(127.13058984375 118.01513671875) " fill="rgb(49, 49, 49)" stroke="rgb(49, 49, 49)" stroke-width="0.051" data-glyph-w="19.849365234375" data-glyph-h="32.041259765625" data-glyph-ascender="25.76513671875" data-glyph-descender="-6.276123046875"></path><path d="M10.32-3.54L1.50-3.54L1.50-24.98L10.32-24.98Q14.28-24.98 17.09-21.85L17.09-21.85Q19.88-18.71 19.88-14.26L19.88-14.26Q19.88-9.82 17.09-6.68L17.09-6.68Q14.28-3.54 10.32-3.54L10.32-3.54ZM10.32-22.69L3.80-22.69L3.80-5.84L10.32-5.84Q13.33-5.84 15.45-8.30L15.45-8.30Q17.58-10.77 17.58-14.26L17.58-14.26Q17.58-17.75 15.45-20.22L15.45-20.22Q13.33-22.69 10.32-22.69L10.32-22.69Z" transform="translate(146.979955078125 118.01513671875) " fill="rgb(49, 49, 49)" stroke="rgb(49, 49, 49)" stroke-width="0.051" data-glyph-w="20.7802734375" data-glyph-h="32.041259765625" data-glyph-ascender="25.76513671875" data-glyph-descender="-6.276123046875"></path><path d="" transform="translate(167.760228515625 118.01513671875) " fill="rgb(49, 49, 49)" stroke="rgb(49, 49, 49)" stroke-width="0.051" data-glyph-w="12.2385" data-glyph-h="30.75" data-glyph-ascender="27.06" data-glyph-descender="-3.69"></path><path d="M10.32-3.54L1.50-3.54L1.50-24.98L10.32-24.98Q14.28-24.98 17.09-21.85L17.09-21.85Q19.88-18.71 19.88-14.26L19.88-14.26Q19.88-9.82 17.09-6.68L17.09-6.68Q14.28-3.54 10.32-3.54L10.32-3.54ZM10.32-22.69L3.80-22.69L3.80-5.84L10.32-5.84Q13.33-5.84 15.45-8.30L15.45-8.30Q17.58-10.77 17.58-14.26L17.58-14.26Q17.58-17.75 15.45-20.22L15.45-20.22Q13.33-22.69 10.32-22.69L10.32-22.69Z" transform="translate(179.99872851562498 118.01513671875) " fill="rgb(49, 49, 49)" stroke="rgb(49, 49, 49)" stroke-width="0.051" data-glyph-w="20.7802734375" data-glyph-h="32.041259765625" data-glyph-ascender="25.76513671875" data-glyph-descender="-6.276123046875"></path><path d="M3.80-22.69L3.80-15.41L16.82-15.41L16.82-13.11L3.80-13.11L3.80-5.84L16.82-5.84L16.82-3.54L1.50-3.54L1.50-24.98L16.82-24.98L16.82-22.69L3.80-22.69Z" transform="translate(200.77900195312498 118.01513671875) " fill="rgb(49, 49, 49)" stroke="rgb(49, 49, 49)" stroke-width="0.051" data-glyph-w="17.71728515625" data-glyph-h="32.041259765625" data-glyph-ascender="25.76513671875" data-glyph-descender="-6.276123046875"></path><path d="M21.74-24.98L19.23-24.98L11.02-6.44L2.81-24.98L0.30-24.98L9.79-3.54L12.25-3.54L21.74-24.98Z" transform="translate(218.49628710937498 118.01513671875) " fill="rgb(49, 49, 49)" stroke="rgb(49, 49, 49)" stroke-width="0.051" data-glyph-w="22.04150390625" data-glyph-h="32.041259765625" data-glyph-ascender="25.76513671875" data-glyph-descender="-6.276123046875"></path><path d="M3.80-22.69L3.80-15.41L16.82-15.41L16.82-13.11L3.80-13.11L3.80-5.84L16.82-5.84L16.82-3.54L1.50-3.54L1.50-24.98L16.82-24.98L16.82-22.69L3.80-22.69Z" transform="translate(240.53779101562498 118.01513671875) " fill="rgb(49, 49, 49)" stroke="rgb(49, 49, 49)" stroke-width="0.051" data-glyph-w="17.71728515625" data-glyph-h="32.041259765625" data-glyph-ascender="25.76513671875" data-glyph-descender="-6.276123046875"></path><path d="M3.80-24.98L3.80-5.84L14.52-5.84L14.52-3.54L1.50-3.54L1.50-24.98L3.80-24.98Z" transform="translate(258.255076171875 118.01513671875) " fill="rgb(49, 49, 49)" stroke="rgb(49, 49, 49)" stroke-width="0.051" data-glyph-w="15.4200439453125" data-glyph-h="32.041259765625" data-glyph-ascender="25.76513671875" data-glyph-descender="-6.276123046875"></path><path d="M12.01-25.37Q16.61-25.37 19.86-22.12L19.86-22.12Q23.11-18.86 23.11-14.26L23.11-14.26Q23.11-9.65 19.86-6.41L19.86-6.41Q16.61-3.15 12.01-3.15L12.01-3.15Q7.40-3.15 4.16-6.41L4.16-6.41Q0.90-9.65 0.90-14.26L0.90-14.26Q0.90-18.86 4.16-22.12L4.16-22.12Q7.40-25.37 12.01-25.37L12.01-25.37ZM12.01-23.06L12.01-23.06Q8.36-23.06 5.78-20.49L5.78-20.49Q3.20-17.91 3.20-14.26L3.20-14.26Q3.20-10.62 5.78-8.03L5.78-8.03Q8.36-5.45 12.01-5.45L12.01-5.45Q15.66-5.45 18.24-8.03L18.24-8.03Q20.81-10.62 20.81-14.26L20.81-14.26Q20.81-17.91 18.24-20.49L18.24-20.49Q15.66-23.06 12.01-23.06Z" transform="translate(273.6751201171875 118.01513671875) " fill="rgb(49, 49, 49)" stroke="rgb(49, 49, 49)" stroke-width="0.051" data-glyph-w="24.0084228515625" data-glyph-h="32.041259765625" data-glyph-ascender="25.76513671875" data-glyph-descender="-6.276123046875"></path><path d="M10.32-24.98L1.50-24.98L1.50-3.54L3.80-3.54L3.80-11.20L10.32-11.20Q13.17-11.20 15.18-13.21L15.18-13.21Q17.21-15.24 17.21-18.09L17.21-18.09Q17.21-20.95 15.18-22.97L15.18-22.97Q13.17-24.98 10.32-24.98L10.32-24.98ZM3.80-22.69L10.32-22.69Q12.22-22.69 13.56-21.34L13.56-21.34Q14.91-20.00 14.91-18.09L14.91-18.09Q14.91-16.19 13.56-14.83L13.56-14.83Q12.22-13.50 10.32-13.50L10.32-13.50L3.80-13.50L3.80-22.69Z" transform="translate(297.68354296875 118.01513671875) " fill="rgb(49, 49, 49)" stroke="rgb(49, 49, 49)" stroke-width="0.051" data-glyph-w="18.107666015625" data-glyph-h="32.041259765625" data-glyph-ascender="25.76513671875" data-glyph-descender="-6.276123046875"></path><path d="M3.80-22.69L3.80-15.41L16.82-15.41L16.82-13.11L3.80-13.11L3.80-5.84L16.82-5.84L16.82-3.54L1.50-3.54L1.50-24.98L16.82-24.98L16.82-22.69L3.80-22.69Z" transform="translate(315.791208984375 118.01513671875) " fill="rgb(49, 49, 49)" stroke="rgb(49, 49, 49)" stroke-width="0.051" data-glyph-w="17.71728515625" data-glyph-h="32.041259765625" data-glyph-ascender="25.76513671875" data-glyph-descender="-6.276123046875"></path><path d="M10.66-11.97L3.80-11.97L3.80-3.54L1.50-3.54L1.50-24.98L11.85-24.98Q14.53-24.98 16.44-23.08L16.44-23.08Q18.35-21.17 18.35-18.47L18.35-18.47Q18.35-15.78 16.44-13.87L16.44-13.87Q15.12-12.55 13.41-12.15L13.41-12.15L19.88-3.54L17.01-3.54L10.66-11.97ZM11.85-22.69L3.80-22.69L3.80-14.26L11.85-14.26Q13.59-14.26 14.82-15.50L14.82-15.50Q16.05-16.73 16.05-18.47L16.05-18.47Q16.05-20.22 14.82-21.46L14.82-21.46Q13.59-22.69 11.85-22.69L11.85-22.69Z" transform="translate(333.508494140625 118.01513671875) " fill="rgb(49, 49, 49)" stroke="rgb(49, 49, 49)" stroke-width="0.051" data-glyph-w="19.248779296875" data-glyph-h="32.041259765625" data-glyph-ascender="25.76513671875" data-glyph-descender="-6.276123046875"></path></g></svg></g>
        </g>
  </svg>