<svg xmlns="http://www.w3.org/2000/svg" viewBox="-50 -50 261.76 226.69">
    <g>
        <g>
            <path d="M26.8,54.5c3.3-1.2,2-5.5-7.6-10.8c-9.6-5.3-20.4-0.4-19.1,6.9C1.5,57.9,18.4,57.4,26.8,54.5z"
                  fill="#4FB0F8"></path>
            <path d="M12.9,72.2c3.4,2.4,10.1-4.4,12.4-8.9c0.9-1.8-1.4-3-7.3-1.4C12,63.5,9.5,69.7,12.9,72.2z"
                  fill="#4FB0F8"></path>
        </g>
        <g>
            <path d="M177.6,64.8c-0.1-0.4-0.1-0.7-0.1-1.1C177.6,64.1,177.6,64.4,177.6,64.8z" fill="none"></path>
            <path d="M178.2,70.2c-0.1-1.8-0.3-3.6-0.6-5.4c0-0.4-0.1-0.7-0.1-1.1C167.2-3.4,78.4-10.5,36.1,35.6
			c-1.7,2.2,0.7,5.3,3.2,4.1c0.5-0.2,1-0.5,1.6-0.7c10-4.4,20.4-8.2,31.2-11.1c2.7-0.7,5.4-1.5,8.2-2c2.7-0.7,5.6-1.1,8.5-1.5
			c2.8-0.5,5.9-0.6,8.8-0.9l4.6,0l2.3,0l2.4,0.2c1.6,0.2,3,0.3,4.9,0.6c2,0.4,4,1,5.9,1.9c3.8,1.7,7.1,4.4,9.7,7.6
			c1.3,1.6,2.4,3.4,3.3,5.3c0.7,1.6,1.2,2.7,1.8,4.1c1,2.7,2,5.3,3,8c3.6,10.7,6.6,21.8,7.1,33.8c0.5,11.9-1.1,25.3-10,37.4
			c-5.1,6.4-11.6,10.3-18.5,12.6c-6.9,2.3-14.5,2.8-22,1.1c-7.5-1.7-14.7-5.9-19.7-11.6c-4.9-5.5-7.9-11.8-10-18
			c-2.2-6.3,0.7-13.5,6.8-16.1c6.9-3,14.7,0.6,17,7.6c0,0.1,0.1,0.2,0.1,0.2l0.2,0.7c1.1,3.7,2.6,6.9,4.4,9.2
			c1.9,2.3,4.2,3.7,6.9,4.6c2.8,0.8,6.1,0.8,9.3-0.2c3.2-0.9,6.1-2.7,7.6-4.5c0.4-0.3,0.9-1.2,1.4-1.9l0.7-1.1l0.6-1.3
			c0.9-1.6,1.4-3.5,2-5.4c1-3.9,1.4-8.3,1.5-12.9c0-9.1-1.5-18.9-4.2-28.3c-0.7-2.4-1.4-4.7-2.3-6.9l-1.3-3.2
			c-0.2-0.5-0.5-1-0.8-1.5c-0.7-0.9-1.6-1.7-2.6-2.1c-0.5-0.2-1-0.4-1.6-0.5c-0.7-0.1-2-0.2-3-0.3l-1.6-0.2l-1.7,0l-3.4,0
			c-2.3,0.3-4.6,0.3-7,0.7c-2.4,0.4-4.7,0.7-7.1,1.3c-2.4,0.5-4.8,1.1-7.1,1.8c-9.5,2.7-19,6.5-28.2,10.7c-1.8,0.8-3.5,1.7-5.3,2.6
			c-14.4,7.2-22.6,23-19.7,38.8c7.3,40.4,40.9,56.8,76.8,59.3c57.8,4,79.7-27,78-78C178.7,76.6,178.5,73.4,178.2,70.2z"
                  fill="#4FB0F8"></path>
            <path d="M177.5,63.7c-5.1-37.6-25.4-71.8-76.7-62c-26.3,5-50.4,15.2-64.7,33.9C78.4-10.5,167.2-3.4,177.5,63.7z"
                  fill="#7063E4"></path>
        </g>
    </g>
</svg>
